HIERARCHY
ROOT joint_Root
{
	OFFSET 0.0 0.0 0.0
	CHANNELS 6 Xposition Yposition Zposition Zrotation Xrotation Yrotation 
	JOINT Hips
	{
		OFFSET -0.726466 93.3139 -2.00062
		CHANNELS 6 Xposition Yposition Zposition Zrotation Xrotation Yrotation 
		JOINT Spine
		{
			OFFSET 15.7357 0.0 0.0
			CHANNELS 6 Xposition Yposition Zposition Zrotation Xrotation Yrotation 
			JOINT Chest
			{
				OFFSET 8.98455 -0.406207 0.0
				CHANNELS 6 Xposition Yposition Zposition Zrotation Xrotation Yrotation 
				JOINT Neck
				{
					OFFSET 16.3773 0.0 0.0
					CHANNELS 6 Xposition Yposition Zposition Zrotation Xrotation Yrotation 
					JOINT Head
					{
						OFFSET 6.45672 0.0 0.0
						CHANNELS 6 Xposition Yposition Zposition Zrotation Xrotation Yrotation 
						End Site
						{
							OFFSET 0.0 0.0 0.0
						}
					}
				}
				JOINT Shoulder_L
				{
					OFFSET 12.9942 -0.242716 4.98039
					CHANNELS 6 Xposition Yposition Zposition Zrotation Xrotation Yrotation 
					JOINT UpperArm_L
					{
						OFFSET 5.34809 0.0 0.0
						CHANNELS 6 Xposition Yposition Zposition Zrotation Xrotation Yrotation 
						JOINT LowerArm_L
						{
							OFFSET 24.3286 1.87007e-05 0.0
							CHANNELS 6 Xposition Yposition Zposition Zrotation Xrotation Yrotation 
							JOINT Hand_L
							{
								OFFSET 22.2916 0.0 0.0
								CHANNELS 6 Xposition Yposition Zposition Zrotation Xrotation Yrotation 
								End Site
								{
									OFFSET 0.0 0.0 0.0
								}
							}
						}
					}
				}
				JOINT Shoulder_R
				{
					OFFSET 12.9945 -0.242716 -4.98039
					CHANNELS 6 Xposition Yposition Zposition Zrotation Xrotation Yrotation 
					JOINT UpperArm_R
					{
						OFFSET -5.34813 0.0 0.0
						CHANNELS 6 Xposition Yposition Zposition Zrotation Xrotation Yrotation 
						JOINT LowerArm_R
						{
							OFFSET -24.3289 0.000322201 0.0
							CHANNELS 6 Xposition Yposition Zposition Zrotation Xrotation Yrotation 
							JOINT Hand_R
							{
								OFFSET -22.2915 -0.000108084 0.0
								CHANNELS 6 Xposition Yposition Zposition Zrotation Xrotation Yrotation 
								End Site
								{
									OFFSET 0.0 0.0 0.0
								}
							}
						}
					}
				}
			}
		}
		JOINT UpperLeg_L
		{
			OFFSET -2.19248 -6.46944 0.0
			CHANNELS 6 Xposition Yposition Zposition Zrotation Xrotation Yrotation 
			JOINT LowerLeg_L
			{
				OFFSET 39.0811 0.0 -1.23785e-05
				CHANNELS 6 Xposition Yposition Zposition Zrotation Xrotation Yrotation 
				JOINT Foot_L
				{
					OFFSET 40.9854 0.0 -1.26872e-05
					CHANNELS 6 Xposition Yposition Zposition Zrotation Xrotation Yrotation 
					JOINT Toes_L
					{
						OFFSET 11.7543 0.0 0.0
						CHANNELS 6 Xposition Yposition Zposition Zrotation Xrotation Yrotation 
						End Site
						{
							OFFSET 0.0 0.0 0.0
						}
					}
				}
			}
		}
		JOINT UpperLeg_R
		{
			OFFSET -2.19251 6.46944 0.0
			CHANNELS 6 Xposition Yposition Zposition Zrotation Xrotation Yrotation 
			JOINT LowerLeg_R
			{
				OFFSET -39.0811 -0.00228153 -0.0401928
				CHANNELS 6 Xposition Yposition Zposition Zrotation Xrotation Yrotation 
				JOINT Foot_R
				{
					OFFSET -40.9854 0.0 0.0
					CHANNELS 6 Xposition Yposition Zposition Zrotation Xrotation Yrotation 
					JOINT Toes_R
					{
						OFFSET -11.7543 0.0 0.0
						CHANNELS 6 Xposition Yposition Zposition Zrotation Xrotation Yrotation 
						End Site
						{
							OFFSET 0.0 0.0 0.0
						}
					}
				}
			}
		}
	}
}
MOTION
Frames:	4
Frame Time:	0.0333333
0.000000 0.000000 0.000000 0.000000 0.000000 -0.000000 0.878894 91.806900 -0.948595 87.503100 -4.730650 6.509580 15.735700 0.000005 -0.000001 98.847000 84.443000 -100.435000 8.984550 -0.406207 -0.000000 3.243610 1.770040 -3.222820 16.377300 -0.000001 -0.000001 4.341600 -3.428170 2.212250 6.456720 -0.000001 -0.000000 -1.634000 -3.125480 -12.250200 12.994200 -0.242716 4.980390 -88.610700 -4.051710 -71.055600 5.348090 -0.000007 -0.000001 1.998080 75.653300 -50.754100 24.328600 0.000019 0.000005 8.753860 0.320681 -87.918500 22.291600 -0.000001 0.000005 36.306600 5.511410 -35.241000 12.994500 -0.242716 -4.980390 92.992000 -6.369020 -64.771300 -5.348130 -0.000001 -0.000004 -48.062200 -48.820000 -115.007000 -24.328900 0.000322 -0.000009 3.526390 2.401250 -55.797600 -22.291500 -0.000108 -0.000004 23.001900 5.483950 -5.900890 -2.192480 -6.469440 -0.000000 -168.495000 -18.906300 -0.179380 39.081100 -0.000007 -0.000012 -0.211756 0.458294 24.799800 40.985400 -0.000006 -0.000013 -6.565450 -3.938080 -65.653500 11.754300 -0.000000 0.000003 -0.000118 -0.001189 -16.623000 -2.192510 6.469440 -0.000001 172.672000 19.801300 -179.045000 -39.081100 -0.002282 -0.040193 0.038724 -0.090243 21.421800 -40.985400 0.000008 0.000006 -1.814870 2.306460 -63.167600 -11.754300 -0.000006 -0.000006 -0.004362 -0.055154 -18.816800
0.000000 0.000000 0.000000 0.000000 0.000000 -0.000000 0.881348 91.810200 -0.941055 87.518400 -4.644540 6.537540 15.735700 0.000005 -0.000001 99.470300 84.405500 -101.077000 8.984550 -0.406207 -0.000000 3.300700 1.901490 -3.264820 16.377300 -0.000001 -0.000001 4.341250 -3.559260 2.427950 6.456720 -0.000001 -0.000000 -1.499850 -3.387700 -12.088800 12.994200 -0.242716 4.980390 -88.597800 -4.096180 -71.084200 5.348090 -0.000007 -0.000001 2.324580 75.557800 -51.157800 24.328600 0.000019 0.000005 8.705520 0.322020 -87.898000 22.291600 -0.000001 0.000005 36.229400 5.510880 -35.263100 12.994500 -0.242716 -4.980390 93.017100 -6.433580 -64.808400 -5.348130 -0.000001 -0.000004 -48.416600 -48.570200 -116.527000 -24.328900 0.000322 -0.000009 3.657660 2.396970 -56.814500 -22.291500 -0.000108 -0.000004 22.798300 5.490590 -6.159080 -2.192480 -6.469440 -0.000000 -168.513000 -18.902900 -0.172356 39.081100 -0.000007 -0.000012 -0.210608 0.456090 24.786300 40.985400 -0.000006 -0.000013 -6.541160 -3.893760 -65.626600 11.754300 -0.000000 0.000003 -0.000125 -0.001242 -16.625000 -2.192510 6.469440 -0.000001 172.637000 19.830900 -179.000000 -39.081100 -0.002282 -0.040193 0.038480 -0.089622 21.421300 -40.985400 0.000008 0.000006 -1.799140 2.274490 -63.163200 -11.754300 -0.000006 -0.000006 -0.004136 -0.052852 -18.723000
0.000000 0.000000 0.000000 0.000000 0.000000 -0.000000 0.897213 91.811600 -0.945000 87.512600 -4.531470 6.538310 15.735700 0.000005 -0.000001 99.901900 84.359800 -101.519000 8.984550 -0.406207 -0.000000 3.378380 1.999430 -3.290470 16.377300 -0.000001 -0.000001 4.249590 -3.657350 2.615970 6.456720 -0.000001 -0.000000 -1.497720 -3.561050 -11.991100 12.994200 -0.242716 4.980390 -88.597700 -4.100260 -71.100500 5.348090 -0.000007 -0.000001 2.187900 75.468500 -51.064700 24.328600 0.000019 0.000005 8.664070 0.318827 -87.908700 22.291600 -0.000001 0.000005 35.966400 5.508190 -35.374300 12.994500 -0.242716 -4.980390 93.008700 -6.424900 -64.840300 -5.348130 -0.000001 -0.000004 -49.379600 -48.346000 -117.867000 -24.328900 0.000322 -0.000009 3.464920 2.216580 -57.440300 -22.291500 -0.000108 -0.000004 22.688900 5.499630 -6.518530 -2.192480 -6.469440 -0.000000 -168.533000 -18.843000 -0.221601 39.081100 -0.000007 -0.000012 -0.210833 0.456176 24.805500 40.985400 -0.000006 -0.000013 -6.514640 -3.850080 -65.615500 11.754300 -0.000000 0.000003 -0.000137 -0.001343 -16.628700 -2.192510 6.469440 -0.000001 172.640000 19.846000 -178.989000 -39.081100 -0.002282 -0.040193 0.039371 -0.091891 21.421700 -40.985400 0.000008 0.000006 -1.791430 2.158690 -63.152900 -11.754300 -0.000006 -0.000006 -0.004324 -0.054768 -18.801100
0.000000 0.000000 0.000000 0.000000 0.000000 -0.000000 0.923178 91.815700 -0.944860 87.531600 -4.366840 6.462820 15.735700 0.000005 -0.000001 100.088000 84.344300 -101.738000 8.984550 -0.406207 -0.000000 3.403930 2.041810 -3.356870 16.377300 -0.000001 -0.000001 4.234280 -3.666810 2.689320 6.456720 -0.000001 -0.000000 -1.595560 -3.584180 -11.825000 12.994200 -0.242716 4.980390 -88.587500 -4.120950 -71.061100 5.348090 -0.000007 -0.000001 2.017290 75.433200 -50.948900 24.328600 0.000019 0.000005 8.741390 0.321277 -87.911500 22.291600 -0.000001 0.000005 35.995000 5.509490 -35.320600 12.994500 -0.242716 -4.980390 92.994100 -6.387400 -64.818900 -5.348130 -0.000001 -0.000004 -50.743500 -48.136900 -118.769000 -24.328900 0.000322 -0.000009 3.167310 2.014320 -57.586900 -22.291500 -0.000108 -0.000004 22.781100 5.504160 -6.701750 -2.192480 -6.469440 -0.000000 -168.618000 -18.724700 -0.327022 39.081100 -0.000007 -0.000012 -0.211449 0.458002 24.782000 40.985400 -0.000006 -0.000013 -6.487690 -3.811100 -65.601400 11.754300 -0.000000 0.000003 -0.000113 -0.001139 -16.621200 -2.192510 6.469440 -0.000001 172.614000 19.938200 -179.017000 -39.081100 -0.002282 -0.040193 0.039473 -0.092364 21.376600 -40.985400 0.000008 0.000006 -1.819280 2.099300 -63.140400 -11.754300 -0.000006 -0.000006 -0.004276 -0.054279 -18.781200
